<svg xmlns="http://www.w3.org/2000/svg" xmlns:xlink="http://www.w3.org/1999/xlink" width="500" zoomAndPan="magnify" viewBox="0 0 375 374.999991" height="500" preserveAspectRatio="xMidYMid meet" version="1.0"><defs><g/><clipPath id="8b74d1e9ed"><path d="M 127.039062 101.960938 L 153.289062 101.960938 L 153.289062 128.210938 L 127.039062 128.210938 Z M 127.039062 101.960938 " clip-rule="nonzero"/></clipPath><clipPath id="ce546df5fe"><path d="M 223.847656 95.023438 L 247.847656 95.023438 L 247.847656 134.773438 L 223.847656 134.773438 Z M 223.847656 95.023438 " clip-rule="nonzero"/></clipPath></defs><rect x="-37.5" width="450" fill="#ffffff" y="-37.499999" height="449.999989" fill-opacity="1"/><rect x="-37.5" width="450" fill="#ffffff" y="-37.499999" height="449.999989" fill-opacity="1"/><g fill="#843030" fill-opacity="1"><g transform="translate(42.223167, 257.254553)"><g><path d="M 3.078125 0 L 3.078125 -26.265625 L 12.140625 -26.265625 L 12.140625 -23.5 L 12.234375 -23.5 C 14.585938 -25.851562 17.097656 -27.03125 19.765625 -27.03125 C 21.671875 -27.03125 23.460938 -26.640625 25.140625 -25.859375 C 26.816406 -25.078125 28.082031 -23.863281 28.9375 -22.21875 C 31.59375 -25.425781 34.492188 -27.03125 37.640625 -27.03125 C 40.429688 -27.03125 42.832031 -26.242188 44.84375 -24.671875 C 46.863281 -23.109375 47.875 -20.65625 47.875 -17.3125 L 47.875 0 L 38.8125 0 L 38.8125 -14.84375 C 38.8125 -16.25 38.425781 -17.421875 37.65625 -18.359375 C 36.882812 -19.296875 35.734375 -19.765625 34.203125 -19.765625 C 32.867188 -19.765625 31.851562 -19.363281 31.15625 -18.5625 C 30.457031 -17.757812 30.070312 -16.796875 30 -15.671875 L 30 0 L 20.9375 0 L 20.9375 -14.84375 C 20.9375 -16.25 20.550781 -17.421875 19.78125 -18.359375 C 19.019531 -19.296875 17.867188 -19.765625 16.328125 -19.765625 C 14.929688 -19.765625 13.882812 -19.328125 13.1875 -18.453125 C 12.488281 -17.585938 12.140625 -16.554688 12.140625 -15.359375 L 12.140625 0 Z M 3.078125 0 "/></g></g></g><g fill="#843030" fill-opacity="1"><g transform="translate(87.840292, 257.254553)"><g><path d="M 29.640625 -11.875 L 10.59375 -11.875 C 10.59375 -10.03125 11.191406 -8.664062 12.390625 -7.78125 C 13.585938 -6.894531 14.882812 -6.453125 16.28125 -6.453125 C 17.75 -6.453125 18.910156 -6.644531 19.765625 -7.03125 C 20.617188 -7.425781 21.59375 -8.207031 22.6875 -9.375 L 29.234375 -6.09375 C 26.503906 -1.519531 21.960938 0.765625 15.609375 0.765625 C 11.648438 0.765625 8.253906 -0.585938 5.421875 -3.296875 C 2.585938 -6.015625 1.171875 -9.285156 1.171875 -13.109375 C 1.171875 -16.929688 2.585938 -20.207031 5.421875 -22.9375 C 8.253906 -25.664062 11.648438 -27.03125 15.609375 -27.03125 C 19.773438 -27.03125 23.164062 -25.828125 25.78125 -23.421875 C 28.394531 -21.015625 29.703125 -17.578125 29.703125 -13.109375 C 29.703125 -12.492188 29.679688 -12.082031 29.640625 -11.875 Z M 10.859375 -16.890625 L 20.84375 -16.890625 C 20.632812 -18.253906 20.09375 -19.300781 19.21875 -20.03125 C 18.351562 -20.769531 17.238281 -21.140625 15.875 -21.140625 C 14.375 -21.140625 13.175781 -20.75 12.28125 -19.96875 C 11.394531 -19.1875 10.921875 -18.160156 10.859375 -16.890625 Z M 10.859375 -16.890625 "/></g></g></g><g fill="#843030" fill-opacity="1"><g transform="translate(113.899306, 257.254553)"><g><path d="M 11.625 -26.265625 L 11.625 -13.78125 C 11.625 -11.175781 12.015625 -9.328125 12.796875 -8.234375 C 13.585938 -7.148438 14.921875 -6.609375 16.796875 -6.609375 C 18.671875 -6.609375 20 -7.148438 20.78125 -8.234375 C 21.570312 -9.328125 21.96875 -11.175781 21.96875 -13.78125 L 21.96875 -26.265625 L 31.03125 -26.265625 L 31.03125 -11.578125 C 31.03125 -7.203125 29.894531 -4.050781 27.625 -2.125 C 25.351562 -0.195312 21.742188 0.765625 16.796875 0.765625 C 11.847656 0.765625 8.238281 -0.195312 5.96875 -2.125 C 3.695312 -4.050781 2.5625 -7.203125 2.5625 -11.578125 L 2.5625 -26.265625 Z M 11.625 -26.265625 "/></g></g></g><g fill="#843030" fill-opacity="1"><g transform="translate(142.671891, 257.254553)"><g/></g></g><g fill="#843030" fill-opacity="1"><g transform="translate(151.835152, 257.254553)"><g><path d="M 4.859375 -3.25 C 2.398438 -5.925781 1.171875 -9.207031 1.171875 -13.09375 C 1.171875 -16.988281 2.398438 -20.285156 4.859375 -22.984375 C 7.316406 -25.679688 10.441406 -27.03125 14.234375 -27.03125 C 17.710938 -27.03125 20.582031 -25.941406 22.84375 -23.765625 L 22.84375 -26.265625 L 31.90625 -26.265625 L 31.90625 0 L 22.9375 0 L 22.9375 -2.96875 L 22.84375 -2.96875 C 20.582031 -0.476562 17.710938 0.765625 14.234375 0.765625 C 10.441406 0.765625 7.316406 -0.570312 4.859375 -3.25 Z M 12.5625 -17.5625 C 11.382812 -16.40625 10.796875 -14.921875 10.796875 -13.109375 C 10.796875 -11.296875 11.359375 -9.816406 12.484375 -8.671875 C 13.617188 -7.535156 15.109375 -6.96875 16.953125 -6.96875 C 18.722656 -6.96875 20.179688 -7.546875 21.328125 -8.703125 C 22.472656 -9.867188 23.046875 -11.335938 23.046875 -13.109375 C 23.046875 -14.921875 22.457031 -16.40625 21.28125 -17.5625 C 20.101562 -18.71875 18.660156 -19.296875 16.953125 -19.296875 C 15.210938 -19.296875 13.75 -18.71875 12.5625 -17.5625 Z M 12.5625 -17.5625 "/></g></g></g><g fill="#843030" fill-opacity="1"><g transform="translate(181.990103, 257.254553)"><g><path d="M 30.109375 -23.015625 C 32.566406 -20.335938 33.796875 -17.050781 33.796875 -13.15625 C 33.796875 -9.269531 32.566406 -5.976562 30.109375 -3.28125 C 27.648438 -0.582031 24.523438 0.765625 20.734375 0.765625 C 17.253906 0.765625 14.390625 -0.328125 12.140625 -2.515625 L 12.140625 13.3125 L 3.078125 13.3125 L 3.078125 -26.265625 L 12.03125 -26.265625 L 12.03125 -23.296875 L 12.140625 -23.296875 C 14.390625 -25.785156 17.253906 -27.03125 20.734375 -27.03125 C 24.523438 -27.03125 27.648438 -25.691406 30.109375 -23.015625 Z M 22.40625 -8.703125 C 23.582031 -9.867188 24.171875 -11.351562 24.171875 -13.15625 C 24.171875 -14.96875 23.601562 -16.441406 22.46875 -17.578125 C 21.34375 -18.722656 19.863281 -19.296875 18.03125 -19.296875 C 16.25 -19.296875 14.785156 -18.71875 13.640625 -17.5625 C 12.503906 -16.40625 11.9375 -14.9375 11.9375 -13.15625 C 11.9375 -11.351562 12.523438 -9.867188 13.703125 -8.703125 C 14.878906 -7.546875 16.320312 -6.96875 18.03125 -6.96875 C 19.769531 -6.96875 21.226562 -7.546875 22.40625 -8.703125 Z M 22.40625 -8.703125 "/></g></g></g><g fill="#843030" fill-opacity="1"><g transform="translate(212.145054, 257.254553)"><g><path d="M 29.640625 -11.875 L 10.59375 -11.875 C 10.59375 -10.03125 11.191406 -8.664062 12.390625 -7.78125 C 13.585938 -6.894531 14.882812 -6.453125 16.28125 -6.453125 C 17.75 -6.453125 18.910156 -6.644531 19.765625 -7.03125 C 20.617188 -7.425781 21.59375 -8.207031 22.6875 -9.375 L 29.234375 -6.09375 C 26.503906 -1.519531 21.960938 0.765625 15.609375 0.765625 C 11.648438 0.765625 8.253906 -0.585938 5.421875 -3.296875 C 2.585938 -6.015625 1.171875 -9.285156 1.171875 -13.109375 C 1.171875 -16.929688 2.585938 -20.207031 5.421875 -22.9375 C 8.253906 -25.664062 11.648438 -27.03125 15.609375 -27.03125 C 19.773438 -27.03125 23.164062 -25.828125 25.78125 -23.421875 C 28.394531 -21.015625 29.703125 -17.578125 29.703125 -13.109375 C 29.703125 -12.492188 29.679688 -12.082031 29.640625 -11.875 Z M 10.859375 -16.890625 L 20.84375 -16.890625 C 20.632812 -18.253906 20.09375 -19.300781 19.21875 -20.03125 C 18.351562 -20.769531 17.238281 -21.140625 15.875 -21.140625 C 14.375 -21.140625 13.175781 -20.75 12.28125 -19.96875 C 11.394531 -19.1875 10.921875 -18.160156 10.859375 -16.890625 Z M 10.859375 -16.890625 "/></g></g></g><g fill="#843030" fill-opacity="1"><g transform="translate(238.204073, 257.254553)"><g><path d="M 4.609375 -26.265625 L 4.609375 -36.046875 L 13.671875 -36.046875 L 13.671875 -26.265625 L 19.203125 -26.265625 L 19.203125 -19.359375 L 13.671875 -19.359375 L 13.671875 -11.015625 C 13.671875 -8.585938 14.351562 -7.375 15.71875 -7.375 C 16.0625 -7.375 16.421875 -7.441406 16.796875 -7.578125 C 17.171875 -7.710938 17.460938 -7.847656 17.671875 -7.984375 L 17.96875 -8.1875 L 20.21875 -0.875 C 18.28125 0.21875 16.0625 0.765625 13.5625 0.765625 C 11.863281 0.765625 10.398438 0.46875 9.171875 -0.125 C 7.941406 -0.726562 7.007812 -1.53125 6.375 -2.53125 C 5.738281 -3.539062 5.285156 -4.597656 5.015625 -5.703125 C 4.742188 -6.816406 4.609375 -8.003906 4.609375 -9.265625 L 4.609375 -19.359375 L 0.8125 -19.359375 L 0.8125 -26.265625 Z M 4.609375 -26.265625 "/></g></g></g><g fill="#843030" fill-opacity="1"><g transform="translate(253.613633, 257.254553)"><g><path d="M 3.9375 -40.90625 C 5 -41.96875 6.265625 -42.5 7.734375 -42.5 C 9.203125 -42.5 10.460938 -41.96875 11.515625 -40.90625 C 12.578125 -39.851562 13.109375 -38.59375 13.109375 -37.125 C 13.109375 -35.65625 12.578125 -34.390625 11.515625 -33.328125 C 10.460938 -32.273438 9.203125 -31.75 7.734375 -31.75 C 6.265625 -31.75 5 -32.273438 3.9375 -33.328125 C 2.882812 -34.390625 2.359375 -35.65625 2.359375 -37.125 C 2.359375 -38.59375 2.882812 -39.851562 3.9375 -40.90625 Z M 3.078125 -26.265625 L 3.078125 0 L 12.140625 0 L 12.140625 -26.265625 Z M 3.078125 -26.265625 "/></g></g></g><g fill="#843030" fill-opacity="1"><g transform="translate(264.261674, 257.254553)"><g><path d="M 4.609375 -26.265625 L 4.609375 -36.046875 L 13.671875 -36.046875 L 13.671875 -26.265625 L 19.203125 -26.265625 L 19.203125 -19.359375 L 13.671875 -19.359375 L 13.671875 -11.015625 C 13.671875 -8.585938 14.351562 -7.375 15.71875 -7.375 C 16.0625 -7.375 16.421875 -7.441406 16.796875 -7.578125 C 17.171875 -7.710938 17.460938 -7.847656 17.671875 -7.984375 L 17.96875 -8.1875 L 20.21875 -0.875 C 18.28125 0.21875 16.0625 0.765625 13.5625 0.765625 C 11.863281 0.765625 10.398438 0.46875 9.171875 -0.125 C 7.941406 -0.726562 7.007812 -1.53125 6.375 -2.53125 C 5.738281 -3.539062 5.285156 -4.597656 5.015625 -5.703125 C 4.742188 -6.816406 4.609375 -8.003906 4.609375 -9.265625 L 4.609375 -19.359375 L 0.8125 -19.359375 L 0.8125 -26.265625 Z M 4.609375 -26.265625 "/></g></g></g><g fill="#843030" fill-opacity="1"><g transform="translate(279.671234, 257.254553)"><g><path d="M 29.640625 -11.875 L 10.59375 -11.875 C 10.59375 -10.03125 11.191406 -8.664062 12.390625 -7.78125 C 13.585938 -6.894531 14.882812 -6.453125 16.28125 -6.453125 C 17.75 -6.453125 18.910156 -6.644531 19.765625 -7.03125 C 20.617188 -7.425781 21.59375 -8.207031 22.6875 -9.375 L 29.234375 -6.09375 C 26.503906 -1.519531 21.960938 0.765625 15.609375 0.765625 C 11.648438 0.765625 8.253906 -0.585938 5.421875 -3.296875 C 2.585938 -6.015625 1.171875 -9.285156 1.171875 -13.109375 C 1.171875 -16.929688 2.585938 -20.207031 5.421875 -22.9375 C 8.253906 -25.664062 11.648438 -27.03125 15.609375 -27.03125 C 19.773438 -27.03125 23.164062 -25.828125 25.78125 -23.421875 C 28.394531 -21.015625 29.703125 -17.578125 29.703125 -13.109375 C 29.703125 -12.492188 29.679688 -12.082031 29.640625 -11.875 Z M 10.859375 -16.890625 L 20.84375 -16.890625 C 20.632812 -18.253906 20.09375 -19.300781 19.21875 -20.03125 C 18.351562 -20.769531 17.238281 -21.140625 15.875 -21.140625 C 14.375 -21.140625 13.175781 -20.75 12.28125 -19.96875 C 11.394531 -19.1875 10.921875 -18.160156 10.859375 -16.890625 Z M 10.859375 -16.890625 "/></g></g></g><g fill="#843030" fill-opacity="1"><g transform="translate(305.730253, 257.254553)"><g/></g></g><g fill="#843030" fill-opacity="1"><g transform="translate(314.893514, 257.254553)"><g><path d="M 8.90625 -10.953125 C 10.539062 -10.953125 11.929688 -10.378906 13.078125 -9.234375 C 14.222656 -8.097656 14.796875 -6.707031 14.796875 -5.0625 C 14.796875 -3.457031 14.222656 -2.082031 13.078125 -0.9375 C 11.929688 0.195312 10.539062 0.765625 8.90625 0.765625 C 7.300781 0.765625 5.925781 0.195312 4.78125 -0.9375 C 3.644531 -2.082031 3.078125 -3.457031 3.078125 -5.0625 C 3.078125 -6.707031 3.644531 -8.097656 4.78125 -9.234375 C 5.925781 -10.378906 7.300781 -10.953125 8.90625 -10.953125 Z M 8.90625 -10.953125 "/></g></g></g><g fill="#000000" fill-opacity="1"><g transform="translate(285.351754, 277.258136)"><g><path d="M 1.859375 -6.265625 L 1.859375 -4.140625 L 4.40625 -4.140625 C 4.550781 -4.140625 4.671875 -4.09375 4.765625 -4 C 4.859375 -3.914062 4.90625 -3.800781 4.90625 -3.65625 C 4.90625 -3.53125 4.859375 -3.421875 4.765625 -3.328125 C 4.671875 -3.242188 4.550781 -3.203125 4.40625 -3.203125 L 1.859375 -3.203125 L 1.859375 -0.5 C 1.859375 -0.351562 1.804688 -0.234375 1.703125 -0.140625 C 1.609375 -0.046875 1.492188 0 1.359375 0 C 1.210938 0 1.09375 -0.046875 1 -0.140625 C 0.90625 -0.234375 0.859375 -0.351562 0.859375 -0.5 L 0.859375 -6.71875 C 0.859375 -6.863281 0.90625 -6.984375 1 -7.078125 C 1.09375 -7.171875 1.207031 -7.21875 1.34375 -7.21875 L 4.875 -7.21875 C 5.007812 -7.21875 5.125 -7.171875 5.21875 -7.078125 C 5.3125 -6.992188 5.359375 -6.878906 5.359375 -6.734375 C 5.359375 -6.609375 5.3125 -6.5 5.21875 -6.40625 C 5.125 -6.3125 5.007812 -6.265625 4.875 -6.265625 Z M 1.859375 -6.265625 "/></g></g></g><g fill="#000000" fill-opacity="1"><g transform="translate(297.881609, 277.258136)"><g><path d="M 5.84375 -2.703125 C 5.84375 -2.160156 5.722656 -1.675781 5.484375 -1.25 C 5.242188 -0.832031 4.914062 -0.5 4.5 -0.25 C 4.082031 -0.0078125 3.625 0.109375 3.125 0.109375 C 2.625 0.109375 2.164062 -0.0078125 1.75 -0.25 C 1.332031 -0.5 1.003906 -0.832031 0.765625 -1.25 C 0.523438 -1.675781 0.40625 -2.160156 0.40625 -2.703125 C 0.40625 -3.234375 0.523438 -3.71875 0.765625 -4.15625 C 1.003906 -4.59375 1.332031 -4.929688 1.75 -5.171875 C 2.164062 -5.410156 2.625 -5.53125 3.125 -5.53125 C 3.625 -5.53125 4.082031 -5.410156 4.5 -5.171875 C 4.914062 -4.929688 5.242188 -4.59375 5.484375 -4.15625 C 5.722656 -3.71875 5.84375 -3.234375 5.84375 -2.703125 Z M 4.875 -2.703125 C 4.875 -3.078125 4.796875 -3.410156 4.640625 -3.703125 C 4.484375 -3.992188 4.269531 -4.21875 4 -4.375 C 3.738281 -4.539062 3.445312 -4.625 3.125 -4.625 C 2.800781 -4.625 2.503906 -4.539062 2.234375 -4.375 C 1.972656 -4.21875 1.765625 -3.992188 1.609375 -3.703125 C 1.453125 -3.410156 1.375 -3.078125 1.375 -2.703125 C 1.375 -2.335938 1.453125 -2.007812 1.609375 -1.71875 C 1.765625 -1.4375 1.972656 -1.210938 2.234375 -1.046875 C 2.503906 -0.878906 2.800781 -0.796875 3.125 -0.796875 C 3.445312 -0.796875 3.738281 -0.878906 4 -1.046875 C 4.269531 -1.210938 4.484375 -1.4375 4.640625 -1.71875 C 4.796875 -2.007812 4.875 -2.335938 4.875 -2.703125 Z M 4.875 -2.703125 "/></g></g></g><g fill="#000000" fill-opacity="1"><g transform="translate(310.844096, 277.258136)"><g><path d="M 5.84375 -2.703125 C 5.84375 -2.160156 5.722656 -1.675781 5.484375 -1.25 C 5.242188 -0.832031 4.914062 -0.5 4.5 -0.25 C 4.082031 -0.0078125 3.625 0.109375 3.125 0.109375 C 2.625 0.109375 2.164062 -0.0078125 1.75 -0.25 C 1.332031 -0.5 1.003906 -0.832031 0.765625 -1.25 C 0.523438 -1.675781 0.40625 -2.160156 0.40625 -2.703125 C 0.40625 -3.234375 0.523438 -3.71875 0.765625 -4.15625 C 1.003906 -4.59375 1.332031 -4.929688 1.75 -5.171875 C 2.164062 -5.410156 2.625 -5.53125 3.125 -5.53125 C 3.625 -5.53125 4.082031 -5.410156 4.5 -5.171875 C 4.914062 -4.929688 5.242188 -4.59375 5.484375 -4.15625 C 5.722656 -3.71875 5.84375 -3.234375 5.84375 -2.703125 Z M 4.875 -2.703125 C 4.875 -3.078125 4.796875 -3.410156 4.640625 -3.703125 C 4.484375 -3.992188 4.269531 -4.21875 4 -4.375 C 3.738281 -4.539062 3.445312 -4.625 3.125 -4.625 C 2.800781 -4.625 2.503906 -4.539062 2.234375 -4.375 C 1.972656 -4.21875 1.765625 -3.992188 1.609375 -3.703125 C 1.453125 -3.410156 1.375 -3.078125 1.375 -2.703125 C 1.375 -2.335938 1.453125 -2.007812 1.609375 -1.71875 C 1.765625 -1.4375 1.972656 -1.210938 2.234375 -1.046875 C 2.503906 -0.878906 2.800781 -0.796875 3.125 -0.796875 C 3.445312 -0.796875 3.738281 -0.878906 4 -1.046875 C 4.269531 -1.210938 4.484375 -1.4375 4.640625 -1.71875 C 4.796875 -2.007812 4.875 -2.335938 4.875 -2.703125 Z M 4.875 -2.703125 "/></g></g></g><g fill="#000000" fill-opacity="1"><g transform="translate(323.806584, 277.258136)"><g><path d="M 5.109375 -7.625 C 5.253906 -7.625 5.375 -7.578125 5.46875 -7.484375 C 5.5625 -7.398438 5.609375 -7.285156 5.609375 -7.140625 L 5.609375 -0.5 C 5.609375 -0.351562 5.5625 -0.234375 5.46875 -0.140625 C 5.375 -0.046875 5.253906 0 5.109375 0 C 4.972656 0 4.859375 -0.046875 4.765625 -0.140625 C 4.671875 -0.234375 4.625 -0.351562 4.625 -0.5 L 4.625 -0.78125 C 4.457031 -0.53125 4.21875 -0.316406 3.90625 -0.140625 C 3.59375 0.0234375 3.253906 0.109375 2.890625 0.109375 C 2.429688 0.109375 2.007812 -0.0078125 1.625 -0.25 C 1.25 -0.5 0.953125 -0.835938 0.734375 -1.265625 C 0.515625 -1.691406 0.40625 -2.175781 0.40625 -2.71875 C 0.40625 -3.25 0.507812 -3.726562 0.71875 -4.15625 C 0.9375 -4.59375 1.234375 -4.929688 1.609375 -5.171875 C 1.992188 -5.410156 2.410156 -5.53125 2.859375 -5.53125 C 3.222656 -5.53125 3.5625 -5.453125 3.875 -5.296875 C 4.1875 -5.148438 4.4375 -4.957031 4.625 -4.71875 L 4.625 -7.140625 C 4.625 -7.285156 4.671875 -7.398438 4.765625 -7.484375 C 4.859375 -7.578125 4.972656 -7.625 5.109375 -7.625 Z M 3.015625 -0.796875 C 3.335938 -0.796875 3.625 -0.878906 3.875 -1.046875 C 4.125 -1.210938 4.316406 -1.441406 4.453125 -1.734375 C 4.597656 -2.023438 4.671875 -2.351562 4.671875 -2.71875 C 4.671875 -3.070312 4.597656 -3.394531 4.453125 -3.6875 C 4.316406 -3.976562 4.125 -4.207031 3.875 -4.375 C 3.625 -4.539062 3.335938 -4.625 3.015625 -4.625 C 2.691406 -4.625 2.40625 -4.539062 2.15625 -4.375 C 1.90625 -4.207031 1.707031 -3.976562 1.5625 -3.6875 C 1.414062 -3.394531 1.34375 -3.070312 1.34375 -2.71875 C 1.34375 -2.351562 1.414062 -2.023438 1.5625 -1.734375 C 1.707031 -1.441406 1.90625 -1.210938 2.15625 -1.046875 C 2.40625 -0.878906 2.691406 -0.796875 3.015625 -0.796875 Z M 3.015625 -0.796875 "/></g></g></g><path fill="#843030" d="M 88.433594 166.25 C 107.710938 187.445312 133.878906 202.054688 162.046875 207.320312 C 191.453125 212.816406 222.238281 208.589844 248.917969 194.996094 C 263.039062 187.800781 275.851562 177.972656 286.511719 166.25 C 290.074219 162.335938 284.261719 156.492188 280.6875 160.425781 C 262.429688 180.496094 238.0625 194.109375 211.421875 199.238281 C 183.972656 204.527344 154.757812 200.484375 129.875 187.71875 C 116.4375 180.828125 104.417969 171.59375 94.257812 160.425781 C 90.683594 156.492188 84.871094 162.332031 88.433594 166.25 " fill-opacity="1" fill-rule="nonzero"/><path fill="#843030" d="M 216.367188 202.570312 C 224.65625 189.855469 232.722656 176.992188 240.667969 164.0625 C 244.011719 158.617188 249.78125 151.121094 257.148438 152.039062 C 259.429688 152.324219 261.011719 154.113281 261.691406 156.753906 C 262.757812 160.890625 261.964844 165.335938 260.636719 169.3125 C 259.277344 173.375 257.167969 177.167969 254.769531 180.707031 C 253.46875 182.628906 252.761719 183.636719 251.277344 185.285156 C 248.328125 188.5625 253.171875 193.433594 256.132812 190.136719 C 260.484375 185.304688 263.976562 179.507812 266.390625 173.484375 C 269.570312 165.546875 271.410156 152.691406 263.082031 147.101562 C 255.902344 142.285156 246.445312 146.964844 240.992188 152.230469 C 236.800781 156.28125 234.085938 161.675781 231.046875 166.578125 C 227.878906 171.695312 224.683594 176.796875 221.464844 181.882812 C 217.820312 187.640625 214.160156 193.394531 210.441406 199.101562 C 208.019531 202.816406 213.960938 206.261719 216.367188 202.570312 " fill-opacity="1" fill-rule="nonzero"/><path fill="#843030" d="M 237.007812 196.347656 C 244.550781 188.859375 249.855469 178.449219 252.636719 168.3125 C 253.574219 164.898438 248.273438 163.441406 247.339844 166.851562 C 244.804688 176.101562 240.015625 185.625 233.125 192.460938 C 230.613281 194.957031 234.496094 198.839844 237.007812 196.347656 " fill-opacity="1" fill-rule="nonzero"/><g clip-path="url(#8b74d1e9ed)"><path fill="#843030" d="M 153.183594 115.03125 C 153.183594 115.890625 153.097656 116.738281 152.929688 117.582031 C 152.765625 118.421875 152.515625 119.242188 152.1875 120.035156 C 151.859375 120.828125 151.457031 121.582031 150.980469 122.292969 C 150.503906 123.007812 149.960938 123.667969 149.355469 124.273438 C 148.746094 124.882812 148.085938 125.421875 147.371094 125.902344 C 146.660156 126.378906 145.90625 126.78125 145.113281 127.109375 C 144.320312 127.4375 143.503906 127.683594 142.660156 127.851562 C 141.820312 128.019531 140.96875 128.105469 140.109375 128.105469 C 139.25 128.105469 138.402344 128.019531 137.558594 127.851562 C 136.71875 127.683594 135.902344 127.4375 135.109375 127.109375 C 134.316406 126.78125 133.5625 126.378906 132.847656 125.902344 C 132.132812 125.421875 131.472656 124.882812 130.867188 124.273438 C 130.261719 123.667969 129.71875 123.007812 129.242188 122.292969 C 128.765625 121.582031 128.363281 120.828125 128.03125 120.035156 C 127.703125 119.242188 127.457031 118.421875 127.289062 117.582031 C 127.121094 116.738281 127.039062 115.890625 127.039062 115.03125 C 127.039062 114.171875 127.121094 113.324219 127.289062 112.480469 C 127.457031 111.640625 127.703125 110.820312 128.03125 110.027344 C 128.363281 109.234375 128.765625 108.484375 129.242188 107.769531 C 129.71875 107.054688 130.261719 106.394531 130.867188 105.789062 C 131.472656 105.179688 132.132812 104.640625 132.847656 104.164062 C 133.5625 103.683594 134.316406 103.28125 135.109375 102.953125 C 135.902344 102.625 136.71875 102.378906 137.558594 102.210938 C 138.402344 102.042969 139.25 101.960938 140.109375 101.960938 C 140.96875 101.960938 141.820312 102.042969 142.660156 102.210938 C 143.503906 102.378906 144.320312 102.625 145.113281 102.953125 C 145.90625 103.28125 146.660156 103.683594 147.371094 104.164062 C 148.085938 104.640625 148.746094 105.179688 149.355469 105.789062 C 149.960938 106.394531 150.503906 107.054688 150.980469 107.769531 C 151.457031 108.484375 151.859375 109.234375 152.1875 110.027344 C 152.515625 110.820312 152.765625 111.640625 152.929688 112.480469 C 153.097656 113.324219 153.183594 114.171875 153.183594 115.03125 Z M 153.183594 115.03125 " fill-opacity="1" fill-rule="nonzero"/></g><g clip-path="url(#ce546df5fe)"><path fill="#843030" d="M 243.746094 134.992188 L 223.851562 115.097656 L 243.886719 95.066406 L 247.957031 99.140625 L 232 115.097656 L 247.820312 130.921875 L 243.746094 134.992188 " fill-opacity="1" fill-rule="nonzero"/></g></svg>