<?xml version="1.0" encoding="UTF-8" standalone="no"?>
<!-- Created with Inkscape (http://www.inkscape.org/) -->

<svg
   width="68.287834mm"
   height="65.912674mm"
   viewBox="0 0 68.287834 65.912674"
   version="1.1"
   id="svg1"
   xml:space="preserve"
   xmlns="http://www.w3.org/2000/svg"
   xmlns:svg="http://www.w3.org/2000/svg"><defs
     id="defs1" /><g
     id="layer1"
     transform="translate(22.932383,128.07208)"><g
       id="g4"
       transform="matrix(0.26458333,0,0,0.26458333,96.410847,-109.85302)"><ellipse
         style="fill:#ffffff;fill-opacity:1;fill-rule:evenodd;stroke-width:1.0975"
         id="path4"
         cx="-322.01315"
         cy="55.699951"
         rx="129.04788"
         ry="124.55939" /><rect
         data-element-id="element-id-56368"
         stroke-width="2"
         fill="transparent"
         class="invisible-element-box individual-element"
         x="0"
         y="0"
         width="0"
         height="0"
         id="rect35"
         transform="translate(-3.2283465e-6)" /><rect
         style="opacity:1;fill:#ffffff;fill-opacity:1;stroke:#000000;stroke-width:0;stroke-dasharray:none"
         id="rect5"
         width="5.9324369"
         height="0.68749213"
         x="-292.23373"
         y="-14.975621"
         transform="matrix(0.81525344,-0.57910434,0.62546356,0.78025338,0,0)" /><rect
         style="opacity:1;fill:#ffffff;fill-opacity:1;stroke:#000000;stroke-width:0;stroke-dasharray:none"
         id="rect6"
         width="3.3900256"
         height="2.4201691"
         x="-291.83676"
         y="-48.539108"
         transform="matrix(0.74795744,-0.66374669,0.6137222,0.78952205,0,0)" /><rect
         style="fill:#ffffff;fill-opacity:1;stroke:#000000;stroke-width:0;stroke-dasharray:none"
         id="rect7-4"
         width="6.2536769"
         height="5.0783081"
         x="-218.13951"
         y="366.73605"
         transform="rotate(38.744506)" /><rect
         style="opacity:1;fill:#ffffff;fill-opacity:1;stroke:#000000;stroke-width:0;stroke-dasharray:none"
         id="rect7"
         width="6.2536769"
         height="5.0783081"
         x="109.86023"
         y="407.07614"
         transform="rotate(84.218609)" /><g
         fill="none"
         fill-rule="none"
         stroke="none"
         stroke-width="1"
         stroke-linecap="butt"
         stroke-linejoin="miter"
         stroke-miterlimit="10"
         stroke-dasharray="none"
         stroke-dashoffset="0"
         font-family="none"
         font-weight="none"
         font-size="none"
         text-anchor="none"
         style="mix-blend-mode:normal"
         id="g3"
         transform="matrix(1.006329,0,0,1.0103995,-598.80164,-185.83209)"><g
           data-paper-data="{&quot;isGlobalGroup&quot;:true,&quot;bounds&quot;:{&quot;x&quot;:145.99999999999997,&quot;y&quot;:106,&quot;width&quot;:258,&quot;height&quot;:258}}"
           id="g2"><g
             data-paper-data="{&quot;fillRule&quot;:&quot;evenodd&quot;,&quot;fillRuleOriginal&quot;:&quot;evenodd&quot;,&quot;isIcon&quot;:true,&quot;iconStyle&quot;:&quot;standalone&quot;,&quot;selectedEffects&quot;:{&quot;container&quot;:&quot;enclosed_circle_outline3&quot;,&quot;transformation&quot;:&quot;&quot;,&quot;pattern&quot;:&quot;&quot;},&quot;bounds&quot;:{&quot;x&quot;:193.06677362152774,&quot;y&quot;:154.40168497066347,&quot;width&quot;:163.8669299844377,&quot;height&quot;:131.29270692806077},&quot;widthRatioIconToContainer&quot;:0.564605669609287,&quot;heightRatioIconToContainer&quot;:1,&quot;relativeBoundsIconToContainer&quot;:{&quot;top&quot;:0,&quot;left&quot;:-0.0000036690048137651472},&quot;iconType&quot;:&quot;icon&quot;,&quot;rawIconId&quot;:&quot;619582&quot;,&quot;isDetailed&quot;:false,&quot;blockLetter&quot;:&quot;O&quot;,&quot;suitableAsStandaloneIcon&quot;:false}"
             fill-rule="evenodd"
             id="element-id-86334"><path
               d="m 305.90536,154.40168 c 8.46496,0 15.354,6.88947 15.354,15.35729 V 284.1715 c -1.0803,-0.0756 -2.16096,-0.14882 -3.24197,-0.21952 v -102.269 h -86.0333 v 102.269 c -1.08157,0.0707 -2.16333,0.14388 -3.24525,0.21952 V 169.75897 c 0,-8.46782 6.88947,-15.35729 15.35845,-15.35729 z m -73.92127,15.35729 v 8.67525 h 86.0333 v -8.67525 c 0,-6.67864 -5.43509,-12.11087 -12.11203,-12.11087 h -61.80807 c -6.67864,0 -12.1132,5.43223 -12.1132,12.11087 z"
               fill="#ee2737"
               id="element-id-10346" /><path
               d="m 301.6241,167.9471 c 0,-1.89799 1.50274,-3.43222 3.4021,-3.43222 h 0.0679 c 1.90255,0 3.43286,1.53423 3.43286,3.43222 0,1.89799 -1.53031,3.43455 -3.43286,3.43455 -1.89406,0 -3.46997,-1.53657 -3.46997,-3.43455 z"
               fill="#ff7f32"
               id="element-id-22280" /><path
               d="m 332.93552,177.06426 c 7.55928,7.55914 13.41186,16.24005 17.55773,26.04273 4.29399,10.15063 6.44045,20.78167 6.44045,31.89311 0,11.11145 -2.14646,21.74248 -6.44045,31.89258 -2.87963,6.80845 -6.5822,13.07568 -11.10774,18.8017 -2.54239,-0.24887 -5.08477,-0.48253 -7.62716,-0.70099 5.41494,-6.1276 9.7259,-12.97847 12.93074,-20.55578 3.96099,-9.36522 5.94201,-19.17818 5.94201,-29.43751 0,-10.25933 -1.98102,-20.07229 -5.94201,-29.43762 -3.82736,-9.04802 -9.23064,-17.06269 -16.20983,-24.04155 -0.78159,-0.78191 -1.57591,-1.54335 -2.38402,-2.2856 v -8.30132 c 2.37341,1.90032 4.6535,3.94444 6.84026,6.13025 z"
               fill="#ff7f32"
               id="element-id-73427" /><path
               d="m 217.06416,177.06426 c 2.18584,-2.18577 4.46572,-4.2288 6.83962,-6.12909 v 8.30132 c -0.80754,0.74186 -1.60186,1.50334 -2.38296,2.28443 -6.97897,6.97887 -12.38289,14.99353 -16.2094,24.04155 -3.96152,9.36532 -5.94222,19.17829 -5.94222,29.43762 0,10.25933 1.98071,20.07229 5.94222,29.43751 3.20442,7.57731 7.51495,14.42818 12.93032,20.55578 -2.54246,0.21846 -5.08488,0.45213 -7.62726,0.70099 -4.52588,-5.72602 -8.2286,-11.99326 -11.10816,-18.8017 -4.29303,-10.15024 -6.43955,-20.7811 -6.43955,-31.89258 0,-11.11148 2.14652,-21.74252 6.43955,-31.89311 4.14615,-9.80268 9.99876,-18.48359 17.55784,-26.04273 z"
               fill="#ff7f32"
               id="element-id-50754" /><path
               d="m 242.14151,234.99788 c 0,-19.06725 15.51371,-34.5798 34.58309,-34.5798 19.0699,0 34.58192,15.51254 34.58192,34.5798 0,19.06937 -15.51201,34.58425 -34.58192,34.58425 -19.06937,0 -34.58309,-15.51488 -34.58309,-34.58425 z m 3.44813,0 c 0,17.19631 13.93748,31.13655 31.13496,31.13655 17.19302,0 31.13422,-13.94024 31.13422,-31.13655 0,-17.19302 -13.94119,-31.13167 -31.13422,-31.13167 -17.19748,0 -31.13496,13.93865 -31.13496,31.13167 z"
               fill="#ff7f32"
               id="element-id-9854" /><path
               d="m 294.90155,219.34588 c 3.24939,3.25321 4.00977,5.46171 4.08295,5.70531 0.18665,0.58582 0.0456,1.22722 -0.37224,1.68164 -0.25982,0.28665 -6.42497,7.02086 -8.64704,9.23955 -1.59649,1.59649 -3.36424,2.37384 -5.40497,2.37384 -0.90196,0 -1.71781,-0.15292 -2.37055,-0.27531 -0.4136,-0.0782 -0.79994,-0.15186 -1.04693,-0.15409 -0.14508,0.15176 -0.32409,0.35347 -0.52919,0.59028 1.43115,1.25097 3.06741,2.76484 4.96762,4.66177 5.82886,5.83225 8.29676,9.28483 5.60562,11.9783 -0.34901,0.35124 -1.28618,1.29106 -2.86803,1.29106 -2.205,0 -4.95055,-1.80328 -9.17942,-6.03099 -1.72353,-1.72343 -3.04248,-3.52395 -4.14276,-5.15915 -1.24641,1.45957 -2.5065,2.87482 -3.63053,4.00108 -4.28094,4.28211 -6.84641,6.03056 -8.85999,6.03056 -1.40846,0 -2.23788,-0.83282 -2.50873,-1.10483 -2.68435,-2.69793 -0.22207,-6.20841 4.93252,-11.363 1.10706,-1.11046 2.49632,-2.35241 3.93649,-3.58631 -0.43619,-0.14624 -0.89623,-0.29121 -1.37219,-0.44085 -2.71267,-0.85434 -5.79142,-1.82089 -8.34777,-4.37607 -3.75292,-3.75642 -6.88035,-10.19708 -4.39993,-17.00383 0.20171,-0.55517 0.67077,-0.96771 1.24641,-1.09455 0.57904,-0.12578 1.17621,0.0498 1.5932,0.4645 l 15.99529,15.99762 c 0.34445,0.34668 0.85212,0.7501 1.51387,1.26232 0.4872,-0.41593 0.90313,-0.7729 1.16147,-1.02095 0.003,-0.22101 -0.0714,-0.64935 -0.13373,-1.00059 -0.005,-0.0273 -0.009,-0.0544 -0.0136,-0.0805 l -0.001,-0.005 c -0.32292,-1.79035 -0.8623,-4.78405 2.08495,-7.73246 3.37442,-3.3722 9.04123,-8.43272 9.28038,-8.64577 0.46344,-0.4102 1.11385,-0.54393 1.69967,-0.34562 0.24476,0.0827 2.49176,0.90429 5.72832,4.14159 z m -7.37475,14.1868 c 1.70423,-1.70307 5.97722,-6.33535 7.75123,-8.26622 -0.0912,-0.15176 -0.21104,-0.33989 -0.33936,-0.53481 l -6.03746,6.03958 c -0.3365,0.33544 -0.77724,0.50544 -1.21916,0.50544 -0.44085,0 -0.88276,-0.17 -1.2182,-0.50427 -0.67416,-0.67427 -0.67416,-1.76542 0,-2.43959 l 6.26621,-6.26971 c -0.0929,-0.0963 -0.1665,-0.18241 -0.26513,-0.28326 -0.1314,-0.13023 -0.25039,-0.23108 -0.37393,-0.35347 l -6.26388,6.26504 c -0.3366,0.3365 -0.77735,0.50533 -1.21926,0.50533 -0.44085,0 -0.88276,-0.16883 -1.2181,-0.5031 -0.67427,-0.67416 -0.67427,-1.76542 0,-2.43959 l 6.02367,-6.02484 c -0.18697,-0.11899 -0.36375,-0.23798 -0.51222,-0.32632 -1.74835,1.5739 -5.73808,5.19648 -8.27067,7.72907 -1.67104,1.67443 -1.41991,3.0691 -1.1288,4.68574 l 2.1e-4,8.5e-4 v 0.001 c 0.2278,1.25659 0.50989,2.82031 -0.69802,4.02822 -0.22324,0.22324 -0.55751,0.52124 -0.93706,0.84872 0.0363,0.0295 0.0748,0.059 0.11103,0.0895 0.3207,-0.37277 0.61191,-0.70025 0.83059,-0.91893 0.95742,-0.9552 2.47246,-0.97906 4.01688,-0.68784 0.56546,0.10658 1.15584,0.21762 1.73488,0.21762 0.74787,0 1.75864,-0.15526 2.96655,-1.36434 z m 0.79198,19.45583 c 0.0873,0 0.14741,0 0.42728,-0.27753 0.0702,-0.24254 -0.16883,-1.6669 -5.60339,-7.10814 -4.49962,-4.494 -7.56024,-6.84641 -9.58517,-8.40101 -1.05488,-0.80906 -1.81527,-1.39488 -2.41583,-1.99439 l -13.80259,-13.80259 c -0.50883,5.29054 3.00049,9.31771 4.2469,10.56412 1.95812,1.95918 4.4906,2.75583 6.94271,3.52406 2.23342,0.70365 4.34553,1.36763 5.85261,2.87705 0.75699,0.75911 1.4618,1.85154 2.35358,3.23963 1.21693,1.89109 2.7308,4.24467 4.84301,6.35794 4.65933,4.65827 6.33758,5.02086 6.74089,5.02086 z m -25.97125,-1.31323 c 0,0 0.13479,0.1087 0.18919,0.15515 0.31391,-0.0249 1.79713,-0.42261 6.38976,-5.02086 1.24302,-1.24079 2.68997,-2.89624 4.10193,-4.56993 -0.34223,-0.51106 -0.65051,-0.93484 -0.92126,-1.24185 -1.73255,1.4583 -3.45491,2.96199 -4.73876,4.25029 -4.96539,4.96433 -5.02881,6.2923 -5.02086,6.42719 z"
               fill="#ff7f32"
               id="element-id-70401" /><path
               fill="#ff7f32"
               id="element-id-56368"
               d="" /></g><g
             fill="#ee2737"
             id="g1"><path
               d="m 202.98129,313.62467 c -1.46211,-3.4554 -2.9148,-6.91453 -4.3742,-10.37106 -0.45054,-1.06715 -0.88612,-2.14199 -1.38163,-3.18823 -0.34632,-0.73135 -0.96467,-1.13307 -1.80095,-1.07716 -0.74896,0.0501 -1.46549,0.69595 -1.67303,1.51715 -0.10028,0.39721 -0.17675,0.81939 -0.15726,1.22524 0.18482,3.85402 0.39566,7.70677 0.5924,11.56011 0.10252,2.00918 0.19378,4.01896 0.2867,6.02872 0.1273,2.75266 0.23689,5.50633 0.38522,8.25779 0.0492,0.91268 0.84912,1.69613 1.69711,1.77351 0.85238,0.0779 1.53535,-0.4904 1.77912,-1.5043 0.0637,-0.26512 0.11132,-0.54591 0.098,-0.81616 -0.18581,-3.77126 -0.38849,-7.54146 -0.57611,-11.31252 -0.0893,-1.7949 -0.15545,-3.59091 -0.23202,-5.38641 0.61352,1.16622 1.11523,2.35605 1.61824,3.54557 0.91329,2.15975 1.81625,4.32399 2.74622,6.47652 0.35705,0.82644 0.97685,1.33397 1.93045,1.28264 0.95409,-0.0514 1.68773,-0.65489 1.97602,-1.61384 0.0872,-0.28977 0.14372,-0.58956 0.20329,-0.88687 0.56909,-2.84044 1.13495,-5.68136 1.70506,-8.52158 0.0552,-0.27532 0.13348,-0.54592 0.20098,-0.81879 0.31207,1.33121 0.53415,2.63426 0.72905,3.94154 0.53276,3.57248 1.04732,7.14751 1.58711,10.71886 0.0861,0.56961 0.22159,1.14082 0.41314,1.68336 0.2674,0.75692 0.99807,1.20311 1.73779,1.14793 0.74188,-0.0553 1.40812,-0.69198 1.57099,-1.48681 0.0796,-0.38838 0.0314,-0.76999 -0.0275,-1.15172 -0.79098,-5.12187 -1.58997,-10.24234 -2.37439,-15.36512 -0.48826,-3.18861 -0.96586,-6.37876 -1.42773,-9.57119 -0.21309,-1.47285 -0.78986,-2.26782 -1.78584,-2.35283 -0.99229,-0.0848 -1.64076,0.56029 -1.97684,2.12912 -0.56632,2.64352 -1.07887,5.29847 -1.61223,7.9491 -0.45631,2.26754 -0.91008,4.53546 -1.38412,6.89831 -0.35249,-0.22813 -0.38068,-0.49254 -0.47297,-0.71089 z"
               data-paper-data="{&quot;glyphName&quot;:&quot;M&quot;,&quot;glyphIndex&quot;:0,&quot;firstGlyphOfWord&quot;:true,&quot;word&quot;:1}"
               fill-rule="nonzero"
               id="element-id-9389" /><path
               d="m 214.7974,315.74181 c 0.34305,2.48031 0.84765,4.93962 1.33077,7.39845 0.21061,1.07204 0.88512,1.71128 1.86041,1.68628 1.92903,-0.0495 3.83818,-0.38126 5.73175,-0.72018 1.08705,-0.19445 1.6604,-1.10442 1.53271,-1.95559 -0.1354,-0.90235 -1.05972,-1.55971 -2.16993,-1.53244 -0.19119,0.005 -0.38112,0.0533 -0.57228,0.0778 -0.79225,0.10153 -1.58605,0.19289 -2.37671,0.30525 -0.49499,0.0702 -0.80603,-0.10168 -0.8991,-0.60552 -0.235,-1.27302 -0.46084,-2.54781 -0.70172,-3.81966 -0.11607,-0.61303 0.0748,-0.90991 0.74156,-0.97143 1.59098,-0.14695 3.17609,-0.35853 4.76441,-0.5365 0.4133,-0.0463 0.82497,-0.092 1.19501,-0.29777 0.69185,-0.38472 1.08008,-0.97122 0.96087,-1.76611 -0.11733,-0.78276 -0.61654,-1.29047 -1.40722,-1.4282 -0.37416,-0.0651 -0.7694,-0.0563 -1.15041,-0.0249 -1.56661,0.12891 -3.13407,0.25556 -4.69555,0.43271 -0.68496,0.0777 -1.01224,-0.0822 -1.06578,-0.83417 -0.22298,-3.13404 -0.58087,-6.25801 -0.62948,-9.40502 -0.009,-0.56242 0.19903,-0.82967 0.71435,-0.8993 0.65545,-0.0885 1.3162,-0.14033 1.96999,-0.23845 1.08838,-0.16349 2.19346,-0.27374 3.25339,-0.55195 0.95217,-0.25002 1.47356,-1.13609 1.33719,-1.93349 -0.14772,-0.8639 -0.9347,-1.44663 -1.95208,-1.43763 -0.19245,0.002 -0.38564,0.022 -0.57669,0.0476 -2.21112,0.29836 -4.42399,0.58606 -6.63219,0.90494 -1.1966,0.17277 -1.81249,0.94315 -1.76027,2.20476 0.13786,3.33112 0.29921,6.66105 0.4513,9.99145 0.12106,1.98654 0.47412,3.9462 0.74569,5.90903 z"
               data-paper-data="{&quot;glyphName&quot;:&quot;E&quot;,&quot;glyphIndex&quot;:1,&quot;word&quot;:1}"
               fill-rule="nonzero"
               id="element-id-81684" /><path
               d="m 242.17685,322.83687 c 0.088,1.39644 0.87065,2.30881 1.91692,2.27808 1.02806,-0.0301 1.75047,-1.04715 1.72246,-2.42548 -5.1e-4,-0.0277 -0.002,-0.0551 -0.003,-0.0827 -0.51516,-8.72775 -1.02569,-17.45561 -1.55044,-26.18277 -0.0771,-1.28215 -0.77114,-2.03101 -1.82185,-2.06852 -1.09261,-0.0391 -1.89751,0.71283 -2.04805,1.96608 -0.12492,1.03972 -0.19406,2.08587 -0.3036,3.12749 -0.56031,5.32429 -1.24463,10.62735 -2.76718,15.78307 -0.32867,1.11288 -0.72359,2.20272 -1.25211,3.23625 -0.23325,0.4561 -0.40942,1.17116 -0.9285,1.16994 -0.58078,-10e-4 -0.72043,-0.74958 -0.95251,-1.22607 -0.43481,-0.8927 -0.76923,-1.82876 -1.03604,-2.78798 -1.28315,-4.61173 -1.9515,-9.32636 -2.35493,-14.0845 -0.0816,-0.96275 -0.1657,-1.92602 -0.40059,-2.86195 -0.20433,-0.8142 -0.79419,-1.24407 -1.62094,-1.30287 -0.70914,-0.0505 -1.3967,0.49654 -1.6676,1.25247 -0.1444,0.40297 -0.1313,0.81287 -0.0958,1.22639 0.30941,3.59743 0.70814,7.18532 1.34636,10.73971 0.58048,3.23227 1.26175,6.44419 2.69502,9.4353 0.455,0.9497 0.99233,1.84534 1.81496,2.53767 1.40572,1.18299 2.91731,1.22224 4.36941,0.0902 0.95973,-0.74803 1.57924,-1.7552 2.10672,-2.82798 0.99042,-2.01379 1.55034,-4.17462 2.26698,-6.31655 0.18737,3.10834 0.36895,6.21687 0.56475,9.3247 z"
               data-paper-data="{&quot;glyphName&quot;:&quot;U&quot;,&quot;glyphIndex&quot;:2,&quot;lastGlyphOfWord&quot;:true,&quot;word&quot;:1}"
               fill-rule="nonzero"
               id="element-id-4685" /><path
               d="m 257.60715,321.32375 c 0.008,0.35406 0.0449,0.72311 0.15612,1.05593 0.33237,0.99387 1.16025,1.54736 1.983,1.37732 0.92972,-0.19216 1.56933,-1.15263 1.464,-2.20087 -0.18248,-1.81541 -0.0991,-3.63908 -0.17206,-5.45762 -0.0229,-0.57341 0.21628,-0.77799 0.77423,-0.79357 2.26046,-0.0631 4.51971,-0.16292 6.78007,-0.23279 1.22162,-0.0377 1.28772,0.0421 1.34061,1.28272 0.0715,1.67996 0.1412,3.36011 0.22132,5.03961 0.0512,1.07273 0.85001,1.90815 1.80227,1.90674 0.9564,-10e-4 1.71365,-0.83437 1.7536,-1.93428 0.007,-0.19285 0.002,-0.3865 -0.007,-0.57928 -0.13435,-3.10008 -0.25957,-6.19781 -0.60837,-9.28741 -0.38735,-3.43278 -0.90983,-6.83293 -1.82804,-10.16542 -0.5678,-2.06038 -1.30488,-4.04671 -2.67911,-5.73064 -1.31402,-1.61032 -3.47114,-2.05844 -5.30371,-1.09199 -1.1348,0.59841 -1.92754,1.55039 -2.57218,2.62916 -0.94435,1.58015 -1.5007,3.31829 -1.92489,5.09156 -1.11729,4.67088 -1.54474,9.40967 -1.26269,13.95725 0.0279,1.87798 0.0442,3.50611 0.0825,5.13357 z m 4.17234,-9.65954 c -0.47551,0.0145 -0.71631,-0.0991 -0.67574,-0.64468 0.2827,-3.80538 0.69612,-7.58323 2.15521,-11.16087 0.27351,-0.67055 0.63102,-1.2935 1.1259,-1.82046 0.61551,-0.65527 1.19236,-0.62493 1.72093,0.10059 0.67293,0.9234 1.09997,1.97 1.43786,3.05668 0.97906,3.14812 1.49711,6.38423 1.88725,9.64841 0.066,0.5524 -0.13639,0.68291 -0.61655,0.68525 -1.1865,0.006 -2.37287,0.0313 -3.55919,0.0489 1.4e-4,0.009 2.8e-4,0.0189 4.2e-4,0.0283 -1.15884,0.0172 -2.31803,0.0221 -3.4761,0.0578 z"
               data-paper-data="{&quot;glyphName&quot;:&quot;A&quot;,&quot;glyphIndex&quot;:3,&quot;firstGlyphOfWord&quot;:true,&quot;word&quot;:2}"
               fill-rule="nonzero"
               id="element-id-30997" /><path
               d="m 278.93293,297.52997 c -0.0193,-0.27482 -0.023,-0.55091 -0.0254,-0.82664 -0.0128,-1.4724 -0.72879,-2.44781 -1.79623,-2.44234 -1.11314,0.006 -1.79427,0.8987 -1.73807,2.43499 0.1391,3.79941 0.32758,7.59706 0.48209,11.39587 0.13866,3.41392 0.25561,6.82868 0.38863,10.24268 0.0386,0.99093 0.0454,1.98752 0.16308,2.96985 0.14879,1.24193 1.02312,2.02577 1.98851,1.90023 0.95942,-0.1248 1.65261,-1.15198 1.59595,-2.28558 -0.20081,-4.0169 -0.38124,-8.03483 -0.57857,-12.05201 -0.025,-0.50789 0.1375,-0.65667 0.62625,-0.46154 0.66555,0.26563 1.33445,0.52866 2.01781,0.74256 2.48721,0.77845 4.98551,1.19741 7.53641,0.23733 2.64747,-0.99641 4.0519,-3.00464 4.20549,-5.70936 0.15048,-2.65095 -0.78749,-4.97153 -3.28008,-6.31851 -2.58113,-1.39482 -5.20911,-1.10334 -7.817,-0.007 -1.28128,0.53882 -2.40484,1.33016 -3.602,2.32972 -0.0664,-0.84513 -0.12151,-1.49735 -0.16687,-2.15043 z m 1.47111,7.20341 c -0.40328,-0.17467 -0.46615,-0.41437 -0.24208,-0.77652 1.42108,-2.2961 4.33399,-4.42816 7.75275,-3.8496 1.42957,0.24194 2.23216,1.26565 2.28784,2.81403 0.066,1.83714 -0.55847,2.80755 -2.05212,3.22882 -0.64964,0.18317 -1.30847,0.1584 -1.96894,0.1553 -2.06777,-0.004 -3.92643,-0.77017 -5.77745,-1.57204 z"
               data-paper-data="{&quot;glyphName&quot;:&quot;P&quot;,&quot;glyphIndex&quot;:4,&quot;word&quot;:2}"
               fill-rule="nonzero"
               id="element-id-12849" /><path
               d="m 295.46172,313.22431 c 0.0273,2.50378 0.21754,5.0071 0.38652,7.50724 0.0737,1.09005 0.66209,1.8093 1.63275,1.90757 1.91986,0.19433 3.8556,0.10612 5.77681,0.009 1.1029,-0.0557 1.78649,-0.88607 1.76724,-1.74654 -0.0204,-0.91222 -0.85443,-1.68097 -1.9592,-1.79401 -0.19026,-0.0194 -0.3848,0.005 -0.57752,0.005 -0.79873,7.4e-4 -1.59771,-0.009 -2.39623,0.003 -0.4999,0.007 -0.78676,-0.20258 -0.81551,-0.71414 -0.0725,-1.29249 -0.13565,-2.5856 -0.21411,-3.87767 -0.0378,-0.62278 0.18905,-0.8932 0.85822,-0.87009 1.59681,0.055 3.19594,0.0451 4.79403,0.069 0.41583,0.006 0.82999,0.0128 1.22304,-0.14459 0.73487,-0.29434 1.194,-0.82716 1.17606,-1.63074 -0.0176,-0.7913 -0.44877,-1.35796 -1.21574,-1.59436 -0.36295,-0.11181 -0.75615,-0.15294 -1.13806,-0.16992 -1.57035,-0.0698 -3.14127,-0.14197 -4.71261,-0.16328 -0.68929,-0.009 -0.99378,-0.20924 -0.952,-0.96199 0.17428,-3.13713 0.21347,-6.28128 0.56237,-9.40927 0.0623,-0.55902 0.30213,-0.79792 0.82212,-0.80197 0.66137,-0.005 1.32339,0.0269 1.98433,0.012 1.10031,-0.0248 2.21047,0.005 3.29703,-0.13699 0.97611,-0.12786 1.60514,-0.94106 1.57049,-1.7493 -0.0375,-0.87564 -0.74468,-1.55302 -1.75506,-1.67247 -0.19113,-0.0226 -0.38532,-0.0269 -0.5781,-0.0255 -2.2311,0.017 -4.46258,0.0231 -6.69336,0.0608 -1.20883,0.0204 -1.91702,0.70689 -2.02442,1.96501 -0.2836,3.32189 -0.54374,6.64556 -0.81313,9.96852 -0.13059,1.98594 -0.0276,3.97448 -0.006,5.95589 z"
               data-paper-data="{&quot;glyphName&quot;:&quot;E&quot;,&quot;glyphIndex&quot;:5,&quot;word&quot;:2}"
               fill-rule="nonzero"
               id="element-id-79771" /><path
               d="m 317.83819,295.77718 c -1.76287,-0.10436 -3.52536,-0.21482 -5.28884,-0.30711 -0.38263,-0.02 -0.77638,-0.0166 -1.15211,0.0494 -1.05235,0.18527 -1.72759,0.87844 -1.71883,1.70889 0.01,0.90217 0.76672,1.68738 1.83558,1.81508 0.82058,0.0981 1.65096,0.14709 2.47736,0.15217 0.71544,0.005 0.94919,0.2728 0.9074,1.00194 -0.23027,4.02043 -0.41921,8.04319 -0.61725,12.06553 -0.16396,3.33319 -0.32149,6.66696 -0.47984,10.00051 -0.009,0.19237 -0.0152,0.38742 0.005,0.57837 0.10996,1.03406 0.8461,1.8151 1.7095,1.82522 0.91562,0.0108 1.69813,-0.67079 1.76879,-1.73504 0.23022,-3.46812 0.45776,-6.93841 0.57697,-10.41152 0.14272,-4.16294 0.57237,-8.31156 0.58104,-12.47982 9.8e-4,-0.50231 0.24958,-0.67346 0.73351,-0.63699 0.9629,0.0728 1.9285,0.10871 2.89189,0.17654 0.48112,0.0338 0.93123,-0.0512 1.36958,-0.24216 0.64677,-0.28172 1.00226,-0.79124 1.03671,-1.47324 0.0349,-0.69093 -0.30688,-1.2148 -0.91691,-1.55005 -0.49323,-0.27099 -1.02034,-0.41509 -1.58692,-0.41506 -1.38131,0.0868 -2.75625,-0.0414 -4.13287,-0.1227 z"
               data-paper-data="{&quot;glyphName&quot;:&quot;T&quot;,&quot;glyphIndex&quot;:6,&quot;word&quot;:2}"
               fill-rule="nonzero"
               id="element-id-30248" /><path
               d="m 325.21711,311.89659 c -0.28892,3.54711 -0.57915,7.09396 -0.86478,10.64134 -0.0287,0.35664 -0.0648,0.71848 -0.0366,1.07295 0.0768,0.96159 0.74438,1.67212 1.5889,1.73542 0.81662,0.0612 1.56272,-0.50262 1.81739,-1.39402 0.0676,-0.23669 0.0981,-0.4867 0.12099,-0.73285 0.38718,-4.17417 0.78343,-8.3476 1.15098,-12.52354 0.34585,-3.92986 0.66844,-7.86178 0.98491,-11.79403 0.10402,-1.29337 -0.56079,-2.21298 -1.60999,-2.30858 -0.99215,-0.0904 -1.7771,0.71174 -1.91372,1.95661 -0.14742,1.34283 -0.31941,2.68349 -0.43598,4.029 -0.26925,3.10569 -0.51127,6.21359 -0.76435,9.32076 -0.0127,-0.001 -0.0254,-0.002 -0.0378,-0.003 z"
               data-paper-data="{&quot;glyphName&quot;:&quot;I&quot;,&quot;glyphIndex&quot;:7,&quot;word&quot;:2}"
               fill-rule="nonzero"
               id="element-id-67845" /><path
               d="m 340.06907,297.60989 c -1.75831,-0.16416 -3.51603,-0.33442 -5.27536,-0.48654 -0.38173,-0.033 -0.77537,-0.043 -1.15312,0.0103 -1.05803,0.14943 -1.75642,0.81927 -1.77587,1.64953 -0.021,0.90198 0.70897,1.71245 1.77289,1.87637 0.81677,0.12593 1.64501,0.20307 2.47076,0.23621 0.71487,0.0289 0.93938,0.30488 0.87285,1.03218 -0.36667,4.01029 -0.69211,8.02432 -1.02663,12.03761 -0.27706,3.3257 -0.54771,6.65219 -0.81917,9.97844 -0.0156,0.19195 -0.0283,0.38668 -0.0144,0.57821 0.0748,1.0372 0.78397,1.84278 1.64653,1.88222 0.91473,0.0419 1.71993,-0.61274 1.82669,-1.67397 0.34786,-3.4583 0.69312,-6.91886 0.93021,-10.38592 0.28401,-4.1557 0.85429,-8.28733 1.00451,-12.45289 0.018,-0.50199 0.2723,-0.66459 0.75472,-0.61172 0.95987,0.10543 1.9237,0.17414 2.88423,0.27464 0.47969,0.0501 0.93243,-0.0196 1.37701,-0.19551 0.65596,-0.2596 1.02855,-0.75675 1.08614,-1.43718 0.0583,-0.68935 -0.26545,-1.22452 -0.86375,-1.5803 -0.48374,-0.28758 -1.00565,-0.4495 -1.57191,-0.46871 -1.38346,0.0398 -2.75325,-0.13496 -4.12632,-0.26298 z"
               data-paper-data="{&quot;glyphName&quot;:&quot;T&quot;,&quot;glyphIndex&quot;:8,&quot;word&quot;:2}"
               fill-rule="nonzero"
               id="element-id-49025" /><path
               d="m 346.7725,316.94451 c -0.17442,2.49784 -0.18643,5.00836 -0.21936,7.51398 -0.0144,1.09244 0.51422,1.85674 1.47381,2.03287 1.89797,0.34832 3.83453,0.41631 5.75733,0.4741 1.10381,0.0333 1.85205,-0.73931 1.90216,-1.59853 0.0531,-0.9109 -0.71627,-1.74432 -1.80835,-1.94598 -0.18808,-0.0347 -0.38393,-0.0262 -0.57605,-0.0415 -0.7962,-0.0636 -1.59181,-0.13745 -2.38867,-0.19011 -0.49885,-0.0331 -0.76788,-0.26529 -0.75534,-0.7775 0.0319,-1.29413 0.073,-2.58813 0.0989,-3.88232 0.0125,-0.6238 0.26037,-0.87507 0.9255,-0.79814 1.58719,0.18342 3.18193,0.30237 4.7729,0.4549 0.41397,0.0397 0.82627,0.0796 1.23071,-0.0456 0.75619,-0.2342 1.25674,-0.72831 1.30358,-1.53073 0.0462,-0.79015 -0.33794,-1.38969 -1.08338,-1.6871 -0.35277,-0.14068 -0.74137,-0.21335 -1.12068,-0.26103 -1.55963,-0.19606 -3.11963,-0.39451 -4.68415,-0.5423 -0.68629,-0.0648 -0.9737,-0.2886 -0.87143,-1.03554 0.42638,-3.1129 0.71867,-6.24369 1.31835,-9.33341 0.10717,-0.55219 0.36542,-0.771 0.88404,-0.73315 0.65963,0.0482 1.31692,0.13338 1.97691,0.17182 1.09874,0.0639 2.20287,0.18325 3.29735,0.129 0.98324,-0.0488 1.67572,-0.80872 1.70627,-1.61713 0.0331,-0.87581 -0.61718,-1.60795 -1.61466,-1.80839 -0.18869,-0.0379 -0.38191,-0.0578 -0.57416,-0.072 -2.22521,-0.1628 -4.44994,-0.33638 -6.67652,-0.47849 -1.20655,-0.077 -1.96773,0.5502 -2.1761,1.79558 -0.55022,3.28825 -1.0772,6.58018 -1.61334,9.87065 -0.29011,1.96897 -0.34766,3.95935 -0.4856,5.93606 z"
               data-paper-data="{&quot;glyphName&quot;:&quot;E&quot;,&quot;glyphIndex&quot;:9,&quot;lastGlyphOfWord&quot;:true,&quot;word&quot;:2}"
               fill-rule="nonzero"
               id="element-id-44866" /><path
               d="m 195.75052,337.71431 c 52.83306,-6.82541 105.66607,-6.82541 158.49904,0 0.13716,0.0177 0.2722,0.008 0.40511,-0.0276 0.13362,-0.0368 0.25452,-0.0976 0.36269,-0.18241 14.55862,-11.38135 26.16903,-25.20645 34.83124,-41.47531 0.0516,-0.0969 0.087,-0.19938 0.10605,-0.30755 0.0113,-0.0672 0.0163,-0.13468 0.0148,-0.20256 -10e-4,-0.0672 -0.01,-0.13398 -0.0244,-0.20044 -0.0149,-0.0657 -0.0361,-0.12974 -0.0636,-0.19195 -0.0276,-0.0622 -0.0608,-0.1209 -0.0997,-0.17604 -0.0389,-0.0559 -0.0831,-0.10711 -0.13256,-0.15377 -0.0488,-0.0467 -0.10181,-0.088 -0.15908,-0.12408 -0.0573,-0.0361 -0.11772,-0.0665 -0.18135,-0.0912 -0.0629,-0.024 -0.12761,-0.0421 -0.19407,-0.0541 -76.07282,-13.22097 -152.14935,-13.22097 -228.22959,0 -0.10845,0.0191 -0.21125,0.0544 -0.3084,0.10605 -0.0598,0.0318 -0.11595,0.0693 -0.16841,0.11241 -0.0524,0.0424 -0.10015,0.0898 -0.14327,0.14211 -0.0431,0.0523 -0.0806,0.10853 -0.11263,0.16862 -0.032,0.0594 -0.0579,0.1216 -0.0777,0.18665 -0.0197,0.065 -0.033,0.13115 -0.0398,0.19831 -0.007,0.0672 -0.007,0.13468 -3.2e-4,0.20256 0.007,0.0672 0.0196,0.13327 0.0391,0.19831 0.0196,0.065 0.0453,0.12726 0.0772,0.18665 8.6632,16.26957 20.27378,30.09467 34.83174,41.47531 0.10874,0.0848 0.22968,0.14564 0.3628,0.18241 0.13312,0.0361 0.26813,0.0453 0.40502,0.0276 z m 158.33467,-2.10192 c -52.72339,-6.77451 -105.44675,-6.77451 -158.1701,0 -13.79453,-10.85533 -24.88249,-23.95364 -33.26388,-39.29491 74.89545,-12.85474 149.79436,-12.85474 224.69673,0 -8.38011,15.34127 -19.4677,28.43958 -33.26276,39.29491 z"
               fill-rule="evenodd"
               id="element-id-87454" /></g><g
             data-paper-data="{&quot;isContainerElementsWrapper&quot;:true}"
             fill="#ee2737"
             fill-rule="evenodd"
             id="element-id-71200"><path
               d="M 146,235.00011 C 146,163.75535 203.75534,106 275.00011,106 346.24487,106 404,163.75534 404,235.00011 c 0,20.77838 -4.91226,40.4095 -13.63916,57.79437 -0.0106,-0.004 -0.0202,-0.01 -0.0308,-0.0149 -0.0901,-0.0456 -0.18347,-0.087 -0.27785,-0.12302 -0.0944,-0.0371 -0.18983,-0.0689 -0.28846,-0.0955 -0.0976,-0.0276 -0.19619,-0.0498 -0.29588,-0.0668 -12.78404,-2.22211 -25.56808,-4.07163 -38.35212,-5.54856 10.11298,-14.78981 16.02742,-32.67693 16.02742,-51.94568 0,-50.8891 -41.25367,-92.14291 -92.14308,-92.14291 -50.8891,0 -92.14294,41.25381 -92.14294,92.14291 0,19.26875 5.91445,37.15587 16.02696,51.94568 -12.7841,1.47693 -25.56825,3.32645 -38.35245,5.54856 -0.31306,0.0541 -0.61053,0.15483 -0.89231,0.30012 -8.7269,-17.38593 -13.63937,-37.0162 -13.63937,-57.79437 z M 199.15986,339.3634 C 220.44654,354.85845 246.65577,364 275.00011,364 c 28.34413,0 54.55347,-9.14156 75.83993,-24.6366 -50.56003,-6.27183 -101.12009,-6.27183 -151.68018,0 z"
               data-paper-data="{&quot;isBaseLogoContainer&quot;:true}"
               id="element-id-68961" /></g></g></g></g></g></svg>
